# xmcd
#
# Track frame offsets:
#  182
#  28742
#  48675
#  74472
#  83900
#  97597
#  121257
#  149995
#  168457
#  176412
#  196582
#  224252
#  248047
#  265050
#
# Disc length: 3842 seconds
#
# Revision: 0
# Processed by: cddbd v1.4PL0 Copyright (c) Steve Scherf et al.
# Submitted via: AltoMP3_Maker 3.0
#
DISCID=c60f000e
DTITLE=PINO DANIELE - E SONA MO'
DYEAR=1900
DGENRE=
TTITLE0=A ME ME PIACE O BLUES
TTITLE1=JE STO VICINO A TE
TTITLE2=NAPULE E'
TTITLE3=NA TAZZULELLA E CAFFE'
TTITLE4=JE SO' PAZZ'
TTITLE5=SICILY
TTITLE6=FEMMENA
TTITLE7=QUANDO
TTITLE8=HUE MAN
TTITLE9=CHE SODDISFAZIONE
TTITLE10=SOTTO O' SOLE
TTITLE11=FATTE NA PIZZA
TTITLE12=QUANNO CHIOVE
TTITLE13=O' SCARRAFONE
EXTD=
EXTT0=
EXTT1=
EXTT2=
EXTT3=
EXTT4=
EXTT5=
EXTT6=
EXTT7=
EXTT8=
EXTT9=
EXTT10=
EXTT11=
EXTT12=
EXTT13=
PLAYORDER=
